<?xml version="1.0" standalone="no"?><!-- Generator: Gravit.io --><svg xmlns="http://www.w3.org/2000/svg" xmlns:xlink="http://www.w3.org/1999/xlink" style="isolation:isolate" viewBox="344 -551.78 1161 1014.97" width="1161" height="1014.97"><g opacity="0.1"><path d=" M 1129.342 357.173 L 1216.51 309.074 C 1224.904 319.123 1232.087 329.283 1240.873 337.964 C 1273.937 370.622 1314.177 377.978 1358.758 365.569 C 1377.146 360.45 1391.147 349.248 1395.406 330.338 C 1399.01 314.336 1395.994 299.137 1383.164 287.571 C 1375.593 280.745 1366.829 274.533 1357.507 270.182 C 1333.814 259.132 1309.546 249.206 1285.439 238.978 C 1257.877 227.277 1231.336 214.011 1208.786 194.474 C 1179.195 168.834 1164.545 136.619 1162.102 98.858 C 1160.304 71.017 1164.676 44.465 1179.208 19.949 C 1197.289 -10.545 1224.498 -30.678 1259.226 -40.963 C 1306.365 -54.925 1353.431 -54.036 1399.199 -35.627 C 1432.634 -22.178 1455.47 2.447 1473.48 32.569 C 1445.385 49.776 1417.582 66.801 1389.503 83.998 C 1385.84 78.775 1382.582 73.804 1378.989 69.066 C 1369.105 56.033 1356.772 46.083 1339.937 42.306 C 1327.169 39.444 1314.329 39.009 1301.597 42.563 C 1261.384 53.789 1260.954 98.829 1281.6 116.616 C 1290.644 124.41 1301.323 131 1312.288 136.148 C 1333.328 146.03 1355.179 154.341 1376.557 163.584 C 1405.327 176.025 1433.196 189.921 1457.106 210.074 C 1487.945 236.063 1502.757 269.077 1504.729 307.84 C 1506.033 333.546 1502.829 358.469 1490.833 381.871 C 1474.208 414.312 1446.798 435.306 1412.148 448.254 C 1380.082 460.233 1346.629 463.766 1312.406 462.269 C 1279.101 460.817 1247.117 454.323 1217.078 440.196 C 1180.169 422.832 1151.901 396.836 1132.104 362.448 C 1131.237 360.949 1130.491 359.38 1129.342 357.173 L 1129.342 357.173 L 1129.342 357.173 Z  M 962.895 -43.853 L 1071.191 -43.853 C 1071.191 -41.705 1071.206 190.256 1071.167 304.222 C 1071.159 327.772 1068.798 351.033 1060.535 373.434 C 1046.43 411.664 1019.792 438.595 979.489 451.744 C 931.129 467.523 882.432 467.25 834.676 449.293 C 794.246 434.091 766.597 405.742 747.671 368.284 C 777.11 351.298 806.304 334.451 835.53 317.592 C 841.222 326.133 846.288 334.368 851.999 342.172 C 862.23 356.141 875.167 366.82 893.557 369.378 C 905.709 371.066 917.918 370.762 929.793 367.223 C 949.603 361.319 957.813 346.639 960.786 328.632 C 962.277 319.585 962.796 310.31 962.806 301.139 C 962.94 188.737 962.893 76.339 962.893 -36.064 C 962.895 -38.467 962.895 -40.873 962.895 -43.853 L 962.895 -43.853 L 962.895 -43.853 Z  M 451.791 -47.65 L 344 -37.693 L 394.865 462.975 L 503.67 462.975 L 451.791 -47.65 L 451.791 -47.65 Z  M 718.463 -546.292 L 610.319 -551.78 L 553.677 462.975 L 662.126 462.975 L 718.463 -546.292 L 718.463 -546.292 Z " fill-rule="evenodd" fill="rgb(46,46,44)"/></g></svg>