<?xml version="1.0" standalone="no"?><!-- Generator: Gravit.io --><svg xmlns="http://www.w3.org/2000/svg" xmlns:xlink="http://www.w3.org/1999/xlink" style="isolation:isolate" viewBox="630.5 38.168 179 164.123" width="179" height="164.123"><g><g><path d=" M 751.582 185.148 L 765.021 177.37 C 766.316 178.995 767.423 180.638 768.778 182.042 C 773.875 187.323 780.079 188.512 786.953 186.505 C 789.788 185.678 791.946 183.866 792.603 180.809 C 793.159 178.221 792.694 175.763 790.716 173.893 C 789.548 172.789 788.197 171.785 786.76 171.081 C 783.107 169.294 779.365 167.689 775.649 166.035 C 771.399 164.143 767.307 161.998 763.83 158.839 C 759.268 154.693 757.009 149.484 756.633 143.378 C 756.356 138.876 757.03 134.582 759.27 130.618 C 762.058 125.687 766.253 122.432 771.607 120.768 C 778.875 118.511 786.132 118.654 793.188 121.631 C 798.343 123.806 801.864 127.788 804.64 132.659 C 800.309 135.441 796.022 138.194 791.693 140.975 C 791.128 140.13 790.626 139.326 790.072 138.56 C 788.548 136.453 786.647 134.844 784.051 134.233 C 782.082 133.77 780.103 133.7 778.14 134.275 C 771.94 136.09 771.874 143.373 775.057 146.249 C 776.451 147.51 778.098 148.575 779.788 149.408 C 783.032 151.006 786.401 152.349 789.697 153.844 C 794.133 155.856 798.429 158.103 802.116 161.362 C 806.871 165.564 809.154 170.902 809.458 177.171 C 809.659 181.327 809.165 185.357 807.316 189.141 C 804.753 194.387 800.527 197.782 795.184 199.876 C 790.241 201.813 785.083 202.384 779.806 202.142 C 774.671 201.907 769.74 200.857 765.109 198.573 C 759.418 195.765 755.06 191.561 752.008 186.001 C 751.874 185.758 751.759 185.505 751.582 185.148 L 751.582 185.148 Z " fill-rule="evenodd" fill="rgb(46,46,44)"/><path d=" M 725.92 120.301 L 742.616 120.301 C 742.616 120.648 742.619 158.157 742.613 176.586 C 742.612 180.394 742.247 184.155 740.973 187.777 C 738.799 193.959 734.692 198.314 728.478 200.44 C 721.022 202.992 713.514 202.947 706.151 200.044 C 699.918 197.586 695.655 193.002 692.737 186.945 C 697.276 184.198 701.777 181.474 706.283 178.748 C 707.16 180.129 707.942 181.46 708.822 182.722 C 710.399 184.981 712.394 186.708 715.229 187.121 C 717.103 187.394 718.985 187.345 720.816 186.773 C 723.87 185.818 725.136 183.444 725.594 180.533 C 725.824 179.07 725.904 177.57 725.906 176.087 C 725.927 157.911 725.919 139.736 725.919 121.561 C 725.92 121.172 725.92 120.783 725.92 120.301 L 725.92 120.301 Z " fill-rule="evenodd" fill="rgb(46,46,44)"/></g><g><path d=" M 647.119 119.687 L 630.5 121.297 L 638.342 202.256 L 655.117 202.256 L 647.119 119.687 Z  M 688.234 39.056 L 671.56 38.168 L 662.827 202.256 L 679.548 202.256 L 688.234 39.056 Z " fill-rule="evenodd" fill="rgb(46,46,44)"/></g></g></svg>