<?xml version="1.0" standalone="no"?><!-- Generator: Gravit.io --><svg xmlns="http://www.w3.org/2000/svg" xmlns:xlink="http://www.w3.org/1999/xlink" style="isolation:isolate" viewBox="568.435 512.603 60 60" width="60" height="60"><defs><clipPath id="_clipPath_GKSkcyJwjXGokkFXcNj6okt32j6sKpXt"><rect width="1440" height="1509.291"/></clipPath></defs><g clip-path="url(#_clipPath_GKSkcyJwjXGokkFXcNj6okt32j6sKpXt)"><rect x="0" y="0" width="1440" height="430.291" transform="matrix(1,0,0,1,0,0)" fill="rgb(243,223,73)"/><clipPath id="_clipPath_xWxWMHydg3kRbk0FMQfErQGp7WWnvZZg"><rect x="0" y="0" width="1440" height="430.291" transform="matrix(1,0,0,1,0,0)" fill="rgb(243,223,73)"/></clipPath><g clip-path="url(#_clipPath_xWxWMHydg3kRbk0FMQfErQGp7WWnvZZg)"><g style="opacity:0.1;"><g><path d=" M 1129.342 357.173 L 1216.51 309.074 C 1224.904 319.123 1232.087 329.283 1240.873 337.964 C 1273.937 370.622 1314.177 377.978 1358.758 365.569 C 1377.146 360.45 1391.147 349.248 1395.406 330.338 C 1399.01 314.336 1395.994 299.137 1383.164 287.571 C 1375.593 280.745 1366.829 274.533 1357.507 270.182 C 1333.814 259.132 1309.546 249.206 1285.439 238.978 C 1257.877 227.277 1231.336 214.011 1208.786 194.474 C 1179.195 168.834 1164.545 136.619 1162.102 98.858 C 1160.304 71.017 1164.676 44.465 1179.208 19.949 C 1197.289 -10.545 1224.498 -30.678 1259.226 -40.963 C 1306.365 -54.925 1353.431 -54.036 1399.199 -35.627 C 1432.634 -22.178 1455.47 2.447 1473.48 32.569 C 1445.385 49.776 1417.582 66.801 1389.503 83.998 C 1385.84 78.775 1382.582 73.804 1378.989 69.066 C 1369.105 56.033 1356.772 46.083 1339.937 42.306 C 1327.169 39.444 1314.329 39.009 1301.597 42.563 C 1261.384 53.789 1260.954 98.829 1281.6 116.616 C 1290.644 124.41 1301.323 131 1312.288 136.148 C 1333.328 146.03 1355.179 154.341 1376.557 163.584 C 1405.327 176.025 1433.196 189.921 1457.106 210.074 C 1487.945 236.063 1502.757 269.077 1504.729 307.84 C 1506.033 333.546 1502.829 358.469 1490.833 381.871 C 1474.208 414.312 1446.798 435.306 1412.148 448.254 C 1380.082 460.233 1346.629 463.766 1312.406 462.269 C 1279.101 460.817 1247.117 454.323 1217.078 440.196 C 1180.169 422.832 1151.901 396.836 1132.104 362.448 C 1131.237 360.949 1130.491 359.38 1129.342 357.173 L 1129.342 357.173 Z " fill-rule="evenodd" fill="rgb(46,46,44)"/><path d=" M 962.895 -43.853 L 1071.191 -43.853 C 1071.191 -41.705 1071.206 190.256 1071.167 304.222 C 1071.159 327.772 1068.798 351.033 1060.535 373.434 C 1046.43 411.664 1019.792 438.595 979.489 451.744 C 931.129 467.523 882.432 467.25 834.676 449.293 C 794.246 434.091 766.597 405.742 747.671 368.284 C 777.11 351.298 806.304 334.451 835.53 317.592 C 841.222 326.133 846.288 334.368 851.999 342.172 C 862.23 356.141 875.167 366.82 893.557 369.378 C 905.709 371.066 917.918 370.762 929.793 367.223 C 949.603 361.319 957.813 346.639 960.786 328.632 C 962.277 319.585 962.796 310.31 962.806 301.139 C 962.94 188.737 962.893 76.339 962.893 -36.064 C 962.895 -38.467 962.895 -40.873 962.895 -43.853 L 962.895 -43.853 Z " fill-rule="evenodd" fill="rgb(46,46,44)"/></g><g><path d=" M 451.791 -47.65 L 344 -37.693 L 394.865 462.975 L 503.67 462.975 L 451.791 -47.65 Z  M 718.463 -546.292 L 610.319 -551.78 L 553.677 462.975 L 662.126 462.975 L 718.463 -546.292 Z " fill-rule="evenodd" fill="rgb(46,46,44)"/></g></g></g><rect x="563" y="781.055" width="314" height="54.236" transform="matrix(1,0,0,1,0,0)" fill="rgb(243,223,73)"/><g><g><path d=" M 751.582 185.148 L 765.021 177.37 C 766.316 178.995 767.423 180.638 768.778 182.042 C 773.875 187.323 780.079 188.512 786.953 186.505 C 789.788 185.678 791.946 183.866 792.603 180.809 C 793.159 178.221 792.694 175.763 790.716 173.893 C 789.548 172.789 788.197 171.785 786.76 171.081 C 783.107 169.294 779.365 167.689 775.649 166.035 C 771.399 164.143 767.307 161.998 763.83 158.839 C 759.268 154.693 757.009 149.484 756.633 143.378 C 756.356 138.876 757.03 134.582 759.27 130.618 C 762.058 125.687 766.253 122.432 771.607 120.768 C 778.875 118.511 786.132 118.654 793.188 121.631 C 798.343 123.806 801.864 127.788 804.64 132.659 C 800.309 135.441 796.022 138.194 791.693 140.975 C 791.128 140.13 790.626 139.326 790.072 138.56 C 788.548 136.453 786.647 134.844 784.051 134.233 C 782.082 133.77 780.103 133.7 778.14 134.275 C 771.94 136.09 771.874 143.373 775.057 146.249 C 776.451 147.51 778.098 148.575 779.788 149.408 C 783.032 151.006 786.401 152.349 789.697 153.844 C 794.133 155.856 798.429 158.103 802.116 161.362 C 806.871 165.564 809.154 170.902 809.458 177.171 C 809.659 181.327 809.165 185.357 807.316 189.141 C 804.753 194.387 800.527 197.782 795.184 199.876 C 790.241 201.813 785.083 202.384 779.806 202.142 C 774.671 201.907 769.74 200.857 765.109 198.573 C 759.418 195.765 755.06 191.561 752.008 186.001 C 751.874 185.758 751.759 185.505 751.582 185.148 L 751.582 185.148 Z " fill-rule="evenodd" fill="rgb(46,46,44)"/><path d=" M 725.92 120.301 L 742.616 120.301 C 742.616 120.648 742.619 158.157 742.613 176.586 C 742.612 180.394 742.247 184.155 740.973 187.777 C 738.799 193.959 734.692 198.314 728.478 200.44 C 721.022 202.992 713.514 202.947 706.151 200.044 C 699.918 197.586 695.655 193.002 692.737 186.945 C 697.276 184.198 701.777 181.474 706.283 178.748 C 707.16 180.129 707.942 181.46 708.822 182.722 C 710.399 184.981 712.394 186.708 715.229 187.121 C 717.103 187.394 718.985 187.345 720.816 186.773 C 723.87 185.818 725.136 183.444 725.594 180.533 C 725.824 179.07 725.904 177.57 725.906 176.087 C 725.927 157.911 725.919 139.736 725.919 121.561 C 725.92 121.172 725.92 120.783 725.92 120.301 L 725.92 120.301 Z " fill-rule="evenodd" fill="rgb(46,46,44)"/></g><g><path d=" M 647.119 119.687 L 630.5 121.297 L 638.342 202.256 L 655.117 202.256 L 647.119 119.687 Z  M 688.234 39.056 L 671.56 38.168 L 662.827 202.256 L 679.548 202.256 L 688.234 39.056 Z " fill-rule="evenodd" fill="rgb(46,46,44)"/></g></g><g transform="matrix(1,0,0,1,344,234.291)"><text transform="matrix(1,0,0,1,0.337,32.065)" style="font-family:&quot;Open Sans&quot;;font-weight:700;font-size:30px;font-style:normal;fill:#000000;stroke:none;">Bologna JS é il gruppo di appassionati di Javascript</text><text transform="matrix(1,0,0,1,218.782,72.92)" style="font-family:&quot;Open Sans&quot;;font-weight:700;font-size:30px;font-style:normal;fill:#000000;stroke:none;">di Bologna e dintorni</text></g><g transform="matrix(1,0,0,1,411.218,328.527)"><text transform="matrix(1,0,0,1,7.411,21.377)" style="font-family:&quot;Open Sans&quot;;font-weight:400;font-size:20px;font-style:normal;fill:#000000;stroke:none;">Siamo una community molto numerosa e molto attiva sul canale </text><text transform="matrix(1,0,0,1,106.542,48.613)" style="font-family:&quot;Open Sans&quot;;font-weight:400;font-size:20px;font-style:normal;fill:#000000;stroke:none;">Slack composta da professionisti e studenti</text></g><rect x="228" y="873.291" width="312" height="232" transform="matrix(1,0,0,1,0,0)" fill="rgb(236,28,64)"/><clipPath id="_clipPath_diJzU90bT6VqCMJsNbWFhZM25CWxmzwj"><rect x="228" y="873.291" width="312" height="232" transform="matrix(1,0,0,1,0,0)" fill="rgb(236,28,64)"/></clipPath><g clip-path="url(#_clipPath_diJzU90bT6VqCMJsNbWFhZM25CWxmzwj)"><g opacity="0.2"><path d=" M 553.817 1114.444 C 551.346 1098.666 522.123 1110.834 520.32 1093.546 C 517.767 1069.015 554.251 1016.147 551.372 995.623 C 548.787 977.145 536.332 973.274 525.496 973.084 C 514.97 972.894 512.189 974.572 508.631 976.641 C 506.578 977.83 503.628 980.186 499.533 976.293 C 496.812 973.703 495.014 971.89 492.135 969.593 C 490.669 968.42 488.333 966.943 484.422 966.368 C 480.506 965.792 475.438 966.368 472.218 967.747 C 468.991 969.131 466.46 971.548 463.81 973.85 C 461.164 976.152 454.445 983.672 448.183 980.897 C 445.467 979.698 436.271 975.104 429.634 972.232 C 416.821 966.688 398.342 975.669 391.689 987.495 C 381.787 1005.087 362.238 1074.206 359.278 1083.322 C 352.641 1103.792 367.691 1120.477 387.989 1119.516 C 396.572 1119.109 402.28 1115.975 407.701 1106.121 C 410.835 1100.431 440.263 1023.585 442.452 1019.898 C 444.039 1017.227 449.334 1013.698 453.826 1016 C 458.313 1018.302 459.209 1023.102 458.546 1027.625 C 457.47 1034.938 436.716 1081.818 435.918 1087.123 C 434.566 1096.141 438.851 1101.159 448.216 1101.647 C 454.635 1101.989 461.028 1099.681 466.107 1090.109 C 468.948 1084.755 501.678 1019.225 504.574 1014.849 C 507.757 1010.049 510.315 1008.469 513.557 1008.637 C 516.072 1008.763 520.097 1009.408 519.092 1016.945 C 518.104 1024.334 491.788 1072.419 489.028 1084.196 C 485.335 1099.937 493.977 1115.878 508.213 1122.855 C 517.295 1127.302 557.021 1134.925 553.817 1114.444 Z " fill="rgb(255,255,255)"/></g></g><g transform="matrix(1,0,0,1,243,835.291)"><text transform="matrix(1,0,0,1,0,21.377)" style="font-family:&quot;Open Sans&quot;;font-weight:700;font-size:20px;font-style:normal;fill:#000000;stroke:none;">Prossimo evento</text></g><g transform="matrix(1,0,0,1,260,897.291)"><text transform="matrix(1,0,0,1,0,21.377)" style="font-family:&quot;Open Sans&quot;;font-weight:700;font-size:20px;font-style:normal;fill:#ffffff;stroke:none;">17 Luglio 2018</text></g><g transform="matrix(1,0,0,1,254,934.291)"><text transform="matrix(1,0,0,1,0,21.377)" style="font-family:&quot;Open Sans&quot;;font-weight:400;font-size:20px;font-style:normal;fill:#ffffff;stroke:none;">Hands-on session: </text><text transform="matrix(1,0,0,1,0,48.613)" style="font-family:&quot;Open Sans&quot;;font-weight:400;font-size:20px;font-style:normal;fill:#ffffff;stroke:none;">Serverless - Build e deploy </text><text transform="matrix(1,0,0,1,0,75.85)" style="font-family:&quot;Open Sans&quot;;font-weight:400;font-size:20px;font-style:normal;fill:#ffffff;stroke:none;">di un’applicazione node.js </text><text transform="matrix(1,0,0,1,0,103.086)" style="font-family:&quot;Open Sans&quot;;font-weight:400;font-size:20px;font-style:normal;fill:#ffffff;stroke:none;">su AWS</text></g><g transform="matrix(1,0,0,1,254,1060.055)"><text transform="matrix(1,0,0,1,0,21.377)" style="font-family:&quot;Open Sans&quot;;font-weight:400;font-size:20px;font-style:normal;fill:#ffffff;stroke:none;">by Davide Fiorello</text></g><g><rect x="565.331" y="873.291" width="312" height="232" transform="matrix(1,0,0,1,0,0)" fill="rgb(247,247,247)"/><g transform="matrix(1,0,0,1,591.331,897.291)"><text transform="matrix(1,0,0,1,0,21.377)" style="font-family:&quot;Open Sans&quot;;font-weight:700;font-size:20px;font-style:normal;fill:#000000;stroke:none;">17 Luglio 2018</text></g><g transform="matrix(1,0,0,1,591.331,934.291)"><text transform="matrix(1,0,0,1,0,21.377)" style="font-family:&quot;Open Sans&quot;;font-weight:400;font-size:20px;font-style:normal;fill:#000000;stroke:none;">Hands-on session: </text><text transform="matrix(1,0,0,1,0,48.613)" style="font-family:&quot;Open Sans&quot;;font-weight:400;font-size:20px;font-style:normal;fill:#000000;stroke:none;">Serverless - Build e deploy </text><text transform="matrix(1,0,0,1,0,75.85)" style="font-family:&quot;Open Sans&quot;;font-weight:400;font-size:20px;font-style:normal;fill:#000000;stroke:none;">di un’applicazione node.js </text><text transform="matrix(1,0,0,1,0,103.086)" style="font-family:&quot;Open Sans&quot;;font-weight:400;font-size:20px;font-style:normal;fill:#000000;stroke:none;">su AWS</text></g><g transform="matrix(1,0,0,1,591.331,1060.055)"><text transform="matrix(1,0,0,1,0,21.377)" style="font-family:&quot;Open Sans&quot;;font-weight:400;font-size:20px;font-style:normal;fill:#000000;stroke:none;">by Davide Fiorello</text></g></g><g><rect x="899.768" y="873.291" width="312" height="232" transform="matrix(1,0,0,1,0,0)" fill="rgb(247,247,247)"/><g transform="matrix(1,0,0,1,925.768,897.291)"><text transform="matrix(1,0,0,1,0,21.377)" style="font-family:&quot;Open Sans&quot;;font-weight:700;font-size:20px;font-style:normal;fill:#000000;stroke:none;">17 Luglio 2018</text></g><g transform="matrix(1,0,0,1,925.768,934.291)"><text transform="matrix(1,0,0,1,0,21.377)" style="font-family:&quot;Open Sans&quot;;font-weight:400;font-size:20px;font-style:normal;fill:#000000;stroke:none;">Hands-on session: </text><text transform="matrix(1,0,0,1,0,48.613)" style="font-family:&quot;Open Sans&quot;;font-weight:400;font-size:20px;font-style:normal;fill:#000000;stroke:none;">Serverless - Build e deploy </text><text transform="matrix(1,0,0,1,0,75.85)" style="font-family:&quot;Open Sans&quot;;font-weight:400;font-size:20px;font-style:normal;fill:#000000;stroke:none;">di un’applicazione node.js </text><text transform="matrix(1,0,0,1,0,103.086)" style="font-family:&quot;Open Sans&quot;;font-weight:400;font-size:20px;font-style:normal;fill:#000000;stroke:none;">su AWS</text></g><g transform="matrix(1,0,0,1,925.768,1060.055)"><text transform="matrix(1,0,0,1,0,21.377)" style="font-family:&quot;Open Sans&quot;;font-weight:400;font-size:20px;font-style:normal;fill:#000000;stroke:none;">by Davide Fiorello</text></g></g><g><rect x="899.768" y="1126.291" width="312" height="232" transform="matrix(1,0,0,1,0,0)" fill="rgb(247,247,247)"/><g transform="matrix(1,0,0,1,925.768,1150.291)"><text transform="matrix(1,0,0,1,0,21.377)" style="font-family:&quot;Open Sans&quot;;font-weight:700;font-size:20px;font-style:normal;fill:#000000;stroke:none;">17 Luglio 2018</text></g><g transform="matrix(1,0,0,1,925.768,1187.291)"><text transform="matrix(1,0,0,1,0,21.377)" style="font-family:&quot;Open Sans&quot;;font-weight:400;font-size:20px;font-style:normal;fill:#000000;stroke:none;">Hands-on session: </text><text transform="matrix(1,0,0,1,0,48.613)" style="font-family:&quot;Open Sans&quot;;font-weight:400;font-size:20px;font-style:normal;fill:#000000;stroke:none;">Serverless - Build e deploy </text><text transform="matrix(1,0,0,1,0,75.85)" style="font-family:&quot;Open Sans&quot;;font-weight:400;font-size:20px;font-style:normal;fill:#000000;stroke:none;">di un’applicazione node.js </text><text transform="matrix(1,0,0,1,0,103.086)" style="font-family:&quot;Open Sans&quot;;font-weight:400;font-size:20px;font-style:normal;fill:#000000;stroke:none;">su AWS</text></g><g transform="matrix(1,0,0,1,925.768,1313.055)"><text transform="matrix(1,0,0,1,0,21.377)" style="font-family:&quot;Open Sans&quot;;font-weight:400;font-size:20px;font-style:normal;fill:#000000;stroke:none;">by Davide Fiorello</text></g></g><g><rect x="230.895" y="1126.291" width="312" height="232" transform="matrix(1,0,0,1,0,0)" fill="rgb(247,247,247)"/><g transform="matrix(1,0,0,1,256.895,1150.291)"><text transform="matrix(1,0,0,1,0,21.377)" style="font-family:&quot;Open Sans&quot;;font-weight:700;font-size:20px;font-style:normal;fill:#000000;stroke:none;">17 Luglio 2018</text></g><g transform="matrix(1,0,0,1,256.895,1187.291)"><text transform="matrix(1,0,0,1,0,21.377)" style="font-family:&quot;Open Sans&quot;;font-weight:400;font-size:20px;font-style:normal;fill:#000000;stroke:none;">Hands-on session: </text><text transform="matrix(1,0,0,1,0,48.613)" style="font-family:&quot;Open Sans&quot;;font-weight:400;font-size:20px;font-style:normal;fill:#000000;stroke:none;">Serverless - Build e deploy </text><text transform="matrix(1,0,0,1,0,75.85)" style="font-family:&quot;Open Sans&quot;;font-weight:400;font-size:20px;font-style:normal;fill:#000000;stroke:none;">di un’applicazione node.js </text><text transform="matrix(1,0,0,1,0,103.086)" style="font-family:&quot;Open Sans&quot;;font-weight:400;font-size:20px;font-style:normal;fill:#000000;stroke:none;">su AWS</text></g><g transform="matrix(1,0,0,1,256.895,1313.055)"><text transform="matrix(1,0,0,1,0,21.377)" style="font-family:&quot;Open Sans&quot;;font-weight:400;font-size:20px;font-style:normal;fill:#000000;stroke:none;">by Davide Fiorello</text></g></g><g><rect x="565.331" y="1126.291" width="312" height="232" transform="matrix(1,0,0,1,0,0)" fill="rgb(247,247,247)"/><g transform="matrix(1,0,0,1,591.331,1150.291)"><text transform="matrix(1,0,0,1,0,21.377)" style="font-family:&quot;Open Sans&quot;;font-weight:700;font-size:20px;font-style:normal;fill:#000000;stroke:none;">17 Luglio 2018</text></g><g transform="matrix(1,0,0,1,591.331,1187.291)"><text transform="matrix(1,0,0,1,0,21.377)" style="font-family:&quot;Open Sans&quot;;font-weight:400;font-size:20px;font-style:normal;fill:#000000;stroke:none;">Hands-on session: </text><text transform="matrix(1,0,0,1,0,48.613)" style="font-family:&quot;Open Sans&quot;;font-weight:400;font-size:20px;font-style:normal;fill:#000000;stroke:none;">Serverless - Build e deploy </text><text transform="matrix(1,0,0,1,0,75.85)" style="font-family:&quot;Open Sans&quot;;font-weight:400;font-size:20px;font-style:normal;fill:#000000;stroke:none;">di un’applicazione node.js </text><text transform="matrix(1,0,0,1,0,103.086)" style="font-family:&quot;Open Sans&quot;;font-weight:400;font-size:20px;font-style:normal;fill:#000000;stroke:none;">su AWS</text></g><g transform="matrix(1,0,0,1,591.331,1313.055)"><text transform="matrix(1,0,0,1,0,21.377)" style="font-family:&quot;Open Sans&quot;;font-weight:400;font-size:20px;font-style:normal;fill:#000000;stroke:none;">by Davide Fiorello</text></g></g><rect x="1577" y="982.89" width="312" height="232" transform="matrix(1,0,0,1,0,0)" fill="rgb(235,235,235)"/><rect x="0" y="1437.909" width="1440" height="71.382" transform="matrix(1,0,0,1,0,0)" fill="rgb(235,235,235)"/><g transform="matrix(1,0,0,1,578.616,781.055)"><text transform="matrix(1,0,0,1,0,41.685)" style="font-family:&quot;Open Sans&quot;;font-weight:700;font-size:39px;font-style:normal;fill:#000000;stroke:none;">I nostri eventi</text></g><g transform="matrix(1,0,0,1,367.616,617.055)"><text transform="matrix(1,0,0,1,8.874,32.065)" style="font-family:&quot;Open Sans&quot;;font-weight:400;font-size:30px;font-style:normal;fill:#000000;stroke:none;">Ogni mese organizziamo talk e aperitivi a tema JS </text><text transform="matrix(1,0,0,1,50.036,72.92)" style="font-family:&quot;Open Sans&quot;;font-weight:400;font-size:30px;font-style:normal;fill:#000000;stroke:none;">e tutto quello che gli gira intorno: frontend, </text><text transform="matrix(1,0,0,1,127.116,113.774)" style="font-family:&quot;Open Sans&quot;;font-weight:400;font-size:30px;font-style:normal;fill:#000000;stroke:none;">backend, hardware e tanto altro</text></g><g><g><g><rect x="1603.169" y="696.203" width="6.372" height="6.155" transform="matrix(0.948,-0.318,0.318,0.948,-138.923,546.398)" fill="rgb(255,255,255)"/><g><rect x="1603.169" y="696.203" width="6.372" height="6.155" transform="matrix(0.948,-0.318,0.318,0.948,-138.923,546.398)" fill="rgb(255,255,255)"/><path d=" M 1627.102 693.019 C 1622.431 677.451 1615.697 673.83 1600.129 678.5 C 1584.561 683.171 1580.94 689.905 1585.611 705.473 C 1590.281 721.042 1597.015 724.662 1612.583 719.992 C 1628.152 715.321 1631.772 708.587 1627.102 693.019 Z  M 1619.245 703.12 L 1616.313 704.098 L 1617.326 707.139 C 1617.725 708.37 1617.073 709.709 1615.842 710.108 C 1615.588 710.18 1615.299 710.252 1615.045 710.216 C 1614.104 710.18 1613.199 709.565 1612.873 708.623 L 1611.859 705.582 L 1605.813 707.609 L 1606.827 710.651 C 1607.225 711.882 1606.573 713.221 1605.342 713.62 C 1605.089 713.692 1604.799 713.764 1604.546 713.728 C 1603.605 713.692 1602.699 713.076 1602.374 712.135 L 1601.36 709.094 L 1598.427 710.071 C 1598.174 710.144 1597.884 710.216 1597.631 710.18 C 1596.689 710.144 1595.784 709.528 1595.458 708.587 C 1595.06 707.356 1595.712 706.016 1596.943 705.618 L 1599.875 704.641 L 1597.92 698.812 L 1594.988 699.789 C 1594.734 699.862 1594.445 699.934 1594.191 699.898 C 1593.25 699.862 1592.345 699.246 1592.019 698.305 C 1591.621 697.074 1592.272 695.734 1593.503 695.336 L 1596.436 694.358 L 1595.422 691.317 C 1595.024 690.086 1595.676 688.747 1596.907 688.348 C 1598.138 687.95 1599.477 688.602 1599.875 689.833 L 1600.889 692.874 L 1606.935 690.846 L 1605.922 687.805 C 1605.523 686.574 1606.175 685.235 1607.406 684.836 C 1608.637 684.438 1609.977 685.09 1610.375 686.321 L 1611.389 689.362 L 1614.321 688.384 C 1615.552 687.986 1616.892 688.638 1617.29 689.869 C 1617.688 691.1 1617.037 692.439 1615.806 692.838 L 1612.873 693.815 L 1614.828 699.644 L 1617.761 698.667 C 1618.992 698.269 1620.331 698.92 1620.73 700.151 C 1621.128 701.382 1620.476 702.722 1619.245 703.12 Z " fill="rgb(255,255,255)"/></g></g></g></g><g><path d=" M 1688.456 526.49 C 1688.05 524.613 1686.201 523.419 1684.324 523.825 C 1682.444 524.231 1681.251 526.079 1681.655 527.958 C 1682.061 529.834 1683.913 531.026 1685.79 530.623 C 1687.667 530.217 1688.862 528.366 1688.456 526.49 Z  M 1680.529 549.029 C 1679.984 546.503 1677.495 544.901 1674.971 545.443 C 1672.446 545.989 1670.841 548.477 1671.386 551 C 1671.929 553.526 1674.418 555.128 1676.945 554.585 C 1679.469 554.04 1681.075 551.552 1680.529 549.029 Z  M 1668.359 512.259 C 1671.216 510.286 1671.932 506.372 1669.958 503.516 C 1667.984 500.66 1664.069 499.945 1661.212 501.918 C 1658.354 503.891 1657.639 507.805 1659.613 510.661 C 1661.587 513.517 1665.502 514.232 1668.359 512.259 Z  M 1652.458 516.779 C 1653.018 509.459 1651.19 501.916 1646.69 495.406 C 1637.918 482.716 1621.901 478.061 1608.046 483.084 C 1595.666 475.156 1579.29 474.823 1566.438 483.701 C 1559.933 488.195 1555.297 494.374 1552.686 501.243 C 1548.903 501.755 1545.172 503.02 1541.815 505.34 C 1530.717 513.007 1527.789 527.953 1534.83 539.285 C 1525.274 548.035 1523.071 562.604 1530.332 573.858 C 1534.639 580.531 1541.404 584.551 1548.669 585.745 C 1548.804 591.19 1550.438 596.659 1553.768 601.475 C 1562.872 614.648 1580.938 617.948 1594.114 608.846 C 1594.617 608.497 1595.007 608.055 1595.481 607.682 C 1602.825 614.235 1613.85 615.316 1622.305 609.474 C 1626.818 606.358 1629.703 601.824 1630.961 596.898 C 1637.578 597.141 1644.315 595.46 1650.18 591.407 C 1664.251 581.687 1668.026 562.681 1659.025 548.342 C 1666.25 542.25 1667.807 531.595 1662.255 523.73 C 1659.781 520.22 1656.279 517.917 1652.458 516.779 Z  M 1616.244 464.036 C 1614.145 460.543 1609.611 459.41 1606.119 461.508 C 1602.624 463.604 1601.493 468.136 1603.59 471.629 C 1605.689 475.123 1610.223 476.253 1613.715 474.157 C 1617.21 472.059 1618.341 467.527 1616.244 464.036 Z  M 1565.836 458.812 C 1565.375 456.679 1563.271 455.321 1561.137 455.782 C 1559 456.242 1557.642 458.345 1558.105 460.481 C 1558.565 462.615 1560.669 463.972 1562.804 463.512 C 1564.941 463.052 1566.299 460.946 1565.836 458.812 Z  M 1549 493.449 C 1551.567 491.676 1552.209 488.159 1550.436 485.594 C 1548.662 483.028 1545.144 482.386 1542.578 484.158 C 1540.013 485.931 1539.369 489.448 1541.142 492.014 C 1542.915 494.577 1546.433 495.222 1549 493.449 Z  M 1523.574 541.407 C 1525.897 538.02 1525.036 533.392 1521.647 531.069 C 1518.259 528.746 1513.628 529.608 1511.305 532.995 C 1508.982 536.382 1509.843 541.011 1513.232 543.333 C 1516.62 545.656 1521.251 544.794 1523.574 541.407 Z  M 1536.882 594.896 C 1537.284 596.763 1539.125 597.951 1540.991 597.547 C 1542.859 597.143 1544.046 595.304 1543.642 593.438 C 1543.239 591.57 1541.399 590.385 1539.531 590.787 C 1537.666 591.19 1536.478 593.029 1536.882 594.896 Z  M 1592.131 617.228 C 1589.946 618.736 1589.399 621.729 1590.908 623.912 C 1592.417 626.096 1595.41 626.643 1597.595 625.135 C 1599.779 623.625 1600.327 620.631 1598.818 618.448 C 1597.309 616.265 1594.315 615.72 1592.131 617.228 Z  M 1637.611 603.623 C 1634.071 606.068 1633.184 610.919 1635.63 614.457 C 1638.076 617.995 1642.929 618.882 1646.47 616.437 C 1650.01 613.992 1650.895 609.141 1648.449 605.603 C 1646.003 602.062 1641.15 601.177 1637.611 603.623 Z " fill="rgb(236,28,64)"/><path d=" M 1635.6 572.911 C 1634.526 566.051 1621.822 571.341 1621.038 563.826 C 1619.928 553.161 1635.789 530.178 1634.538 521.256 C 1633.414 513.223 1627.999 511.541 1623.289 511.458 C 1618.712 511.375 1617.504 512.105 1615.957 513.004 C 1615.064 513.521 1613.782 514.545 1612.002 512.853 C 1610.819 511.727 1610.037 510.939 1608.786 509.94 C 1608.148 509.43 1607.133 508.788 1605.433 508.538 C 1603.73 508.288 1601.527 508.538 1600.127 509.138 C 1598.725 509.74 1597.624 510.79 1596.472 511.791 C 1595.322 512.792 1592.401 516.061 1589.679 514.854 C 1588.498 514.333 1584.5 512.336 1581.615 511.087 C 1576.045 508.677 1568.012 512.582 1565.119 517.723 C 1560.815 525.37 1552.316 555.418 1551.03 559.381 C 1548.144 568.28 1554.687 575.533 1563.511 575.116 C 1567.242 574.938 1569.724 573.576 1572.08 569.292 C 1573.443 566.819 1586.236 533.412 1587.187 531.809 C 1587.877 530.648 1590.179 529.114 1592.132 530.115 C 1594.082 531.115 1594.472 533.202 1594.184 535.168 C 1593.716 538.347 1584.694 558.727 1584.347 561.033 C 1583.759 564.954 1585.622 567.135 1589.693 567.347 C 1592.484 567.496 1595.263 566.493 1597.471 562.332 C 1598.706 560.004 1612.935 531.516 1614.193 529.614 C 1615.577 527.527 1616.689 526.841 1618.099 526.914 C 1619.192 526.968 1620.942 527.249 1620.505 530.525 C 1620.075 533.738 1608.635 554.641 1607.435 559.761 C 1605.83 566.604 1609.586 573.534 1615.775 576.567 C 1619.723 578.5 1636.993 581.814 1635.6 572.911 Z " fill="rgb(255,255,255)"/></g><g transform="matrix(1,0,0,1,470,460.291)"><text transform="matrix(1,0,0,1,0,21.377)" style="font-family:&quot;Open Sans&quot;;font-weight:400;font-size:20px;font-style:normal;fill:#000000;stroke:none;">Vieni a chattare con noi su </text><text transform="matrix(1,0,0,1,250.469,21.377)" style="font-family:&quot;Open Sans&quot;;font-weight:700;font-size:20px;font-style:normal;fill:#000000;stroke:none;">Slack </text><text transform="matrix(1,0,0,1,307.549,21.377)" style="font-family:&quot;Open Sans&quot;;font-weight:400;font-size:20px;font-style:normal;fill:#000000;stroke:none;">o seguici su </text><text transform="matrix(1,0,0,1,420.664,21.377)" style="font-family:&quot;Open Sans&quot;;font-weight:700;font-size:20px;font-style:normal;fill:#000000;stroke:none;">Meetup</text></g><g><g><g><g><rect x="594.423" y="538.784" width="8.511" height="8.221" transform="matrix(0.948,-0.318,0.318,0.948,-141.429,218.255)" fill="rgb(45,51,58)"/><g><rect x="594.423" y="538.784" width="8.511" height="8.221" transform="matrix(0.948,-0.318,0.318,0.948,-141.429,218.255)" fill="rgb(45,51,58)"/><path d=" M 626.389 534.53 C 620.151 513.736 611.156 508.9 590.362 515.138 C 569.568 521.376 564.732 530.371 570.97 551.165 C 577.208 571.959 586.203 576.795 606.997 570.557 C 627.791 564.319 632.627 555.324 626.389 534.53 Z  M 615.895 548.022 L 611.978 549.328 L 613.332 553.39 C 613.864 555.034 612.993 556.823 611.349 557.355 C 611.011 557.452 610.624 557.549 610.285 557.5 C 609.028 557.452 607.819 556.63 607.384 555.372 L 606.03 551.31 L 597.954 554.018 L 599.308 558.08 C 599.84 559.725 598.97 561.514 597.325 562.046 C 596.987 562.143 596.6 562.239 596.262 562.191 C 595.004 562.143 593.795 561.321 593.36 560.063 L 592.006 556.001 L 588.089 557.307 C 587.75 557.403 587.364 557.5 587.025 557.452 C 585.768 557.403 584.559 556.581 584.124 555.324 C 583.592 553.68 584.462 551.891 586.106 551.359 L 590.023 550.053 L 587.412 542.267 L 583.495 543.573 C 583.156 543.67 582.77 543.766 582.431 543.718 C 581.174 543.67 579.965 542.848 579.53 541.59 C 578.998 539.946 579.868 538.157 581.512 537.625 L 585.429 536.319 L 584.075 532.257 C 583.543 530.613 584.414 528.824 586.058 528.292 C 587.702 527.76 589.491 528.63 590.023 530.274 L 591.377 534.337 L 599.453 531.628 L 598.099 527.566 C 597.567 525.922 598.438 524.133 600.082 523.601 C 601.726 523.069 603.515 523.939 604.047 525.584 L 605.401 529.646 L 609.318 528.34 C 610.962 527.808 612.752 528.679 613.284 530.323 C 613.816 531.967 612.945 533.756 611.301 534.288 L 607.384 535.594 L 609.995 543.38 L 613.912 542.074 C 615.556 541.542 617.346 542.412 617.878 544.057 C 618.41 545.701 617.539 547.49 615.895 548.022 Z " fill="rgb(45,51,58)"/></g></g></g></g><path d=" M 717.292 541.88 C 717.043 540.727 715.907 539.995 714.754 540.243 C 713.602 540.492 712.869 541.628 713.118 542.78 C 713.366 543.933 714.502 544.665 715.656 544.417 C 716.808 544.168 717.541 543.032 717.292 541.88 L 717.292 541.88 L 717.292 541.88 Z  M 664.927 500.691 C 664.717 499.716 663.756 499.097 662.782 499.307 C 661.806 499.517 661.186 500.477 661.398 501.453 C 661.608 502.427 662.568 503.046 663.543 502.836 C 664.519 502.626 665.138 501.665 664.927 500.691 L 664.927 500.691 L 664.927 500.691 Z  M 711.736 525.092 C 713.04 524.191 713.367 522.405 712.466 521.101 C 711.564 519.797 709.777 519.47 708.472 520.371 C 707.168 521.272 706.841 523.059 707.743 524.363 C 708.644 525.667 710.431 525.993 711.736 525.092 L 711.736 525.092 L 711.736 525.092 Z  M 704.476 527.156 C 704.731 523.814 703.897 520.37 701.842 517.398 C 697.837 511.604 690.525 509.479 684.199 511.772 C 678.546 508.152 671.07 508 665.202 512.054 C 662.232 514.106 660.116 516.927 658.923 520.063 C 657.196 520.297 655.493 520.874 653.96 521.934 C 648.893 525.434 647.556 532.258 650.771 537.432 C 646.408 541.427 645.402 548.078 648.717 553.216 C 650.684 556.263 653.772 558.098 657.09 558.643 C 657.151 561.13 657.897 563.627 659.417 565.825 C 663.574 571.84 671.822 573.346 677.838 569.191 C 678.068 569.031 678.246 568.83 678.462 568.659 C 681.815 571.651 686.849 572.144 690.709 569.477 C 692.769 568.055 694.087 565.985 694.661 563.736 C 697.682 563.847 700.758 563.079 703.436 561.229 C 709.86 556.791 711.584 548.114 707.474 541.567 C 710.773 538.785 711.483 533.921 708.949 530.33 C 707.819 528.727 706.22 527.676 704.476 527.156 L 704.476 527.156 L 704.476 527.156 Z  M 687.942 503.076 C 686.983 501.481 684.913 500.963 683.319 501.921 C 681.723 502.878 681.207 504.948 682.164 506.542 C 683.123 508.137 685.193 508.654 686.787 507.697 C 688.383 506.739 688.899 504.67 687.942 503.076 L 687.942 503.076 L 687.942 503.076 Z  M 720.911 531.59 C 720.726 530.733 719.882 530.188 719.025 530.373 C 718.166 530.558 717.622 531.402 717.806 532.26 C 717.992 533.117 718.837 533.661 719.694 533.477 C 720.551 533.291 721.097 532.446 720.911 531.59 L 720.911 531.59 L 720.911 531.59 Z  M 657.241 516.504 C 658.412 515.695 658.706 514.089 657.896 512.918 C 657.086 511.746 655.48 511.453 654.308 512.263 C 653.138 513.072 652.843 514.678 653.653 515.849 C 654.462 517.02 656.069 517.314 657.241 516.504 L 657.241 516.504 L 657.241 516.504 Z  M 645.632 538.4 C 646.693 536.854 646.299 534.741 644.752 533.68 C 643.205 532.62 641.091 533.013 640.03 534.56 C 638.97 536.106 639.363 538.22 640.91 539.28 C 642.457 540.34 644.571 539.947 645.632 538.4 L 645.632 538.4 L 645.632 538.4 Z  M 651.708 562.822 C 651.891 563.674 652.732 564.216 653.584 564.032 C 654.437 563.848 654.979 563.008 654.794 562.156 C 654.61 561.303 653.77 560.762 652.918 560.945 C 652.066 561.13 651.524 561.969 651.708 562.822 L 651.708 562.822 L 651.708 562.822 Z  M 676.932 573.017 C 675.935 573.706 675.685 575.073 676.374 576.069 C 677.063 577.066 678.43 577.316 679.427 576.628 C 680.424 575.938 680.675 574.571 679.986 573.575 C 679.297 572.578 677.93 572.329 676.932 573.017 L 676.932 573.017 L 676.932 573.017 Z  M 697.697 566.806 C 696.081 567.922 695.676 570.137 696.793 571.752 C 697.909 573.368 700.125 573.773 701.742 572.656 C 703.358 571.54 703.762 569.325 702.645 567.71 C 701.529 566.093 699.313 565.689 697.697 566.806 L 697.697 566.806 L 697.697 566.806 Z  M 696.779 552.784 C 696.289 549.652 690.489 552.067 690.131 548.636 C 689.624 543.767 696.865 533.274 696.294 529.2 C 695.781 525.533 693.309 524.764 691.158 524.727 C 689.069 524.689 688.517 525.022 687.811 525.433 C 687.403 525.669 686.818 526.136 686.005 525.364 C 685.465 524.85 685.108 524.49 684.537 524.034 C 684.246 523.801 683.782 523.508 683.006 523.394 C 682.229 523.279 681.223 523.394 680.583 523.667 C 679.943 523.942 679.441 524.422 678.915 524.879 C 678.39 525.336 677.056 526.828 675.813 526.277 C 675.274 526.039 673.449 525.128 672.131 524.558 C 669.588 523.457 665.921 525.24 664.6 527.587 C 662.635 531.079 658.755 544.797 658.167 546.607 C 656.85 550.67 659.837 553.981 663.866 553.79 C 665.569 553.71 666.702 553.088 667.778 551.132 C 668.4 550.002 674.241 534.75 674.676 534.018 C 674.99 533.488 676.041 532.788 676.933 533.245 C 677.824 533.702 678.001 534.654 677.87 535.552 C 677.656 537.004 673.537 546.308 673.379 547.361 C 673.11 549.151 673.961 550.147 675.819 550.244 C 677.094 550.312 678.363 549.854 679.371 547.954 C 679.934 546.891 686.431 533.885 687.005 533.016 C 687.637 532.063 688.145 531.75 688.789 531.783 C 689.288 531.808 690.087 531.936 689.887 533.432 C 689.691 534.899 684.468 544.443 683.92 546.78 C 683.187 549.904 684.902 553.068 687.728 554.453 C 689.53 555.336 697.415 556.849 696.779 552.784 Z " fill-rule="evenodd" fill="rgb(45,51,58)"/><g><g><circle vector-effect="non-scaling-stroke" cx="765.4933753476437" cy="540.4022158517234" r="30.058816605519155" fill="rgb(45,51,58)"/></g><g><path d=" M 759.993 556.258 C 773.324 556.258 780.613 545.212 780.613 535.638 C 780.613 535.322 780.613 535.007 780.598 534.706 C 782.011 533.684 783.243 532.407 784.22 530.949 C 782.927 531.52 781.53 531.911 780.057 532.091 C 781.56 531.189 782.702 529.776 783.243 528.078 C 781.845 528.905 780.297 529.506 778.644 529.837 C 777.322 528.424 775.443 527.552 773.354 527.552 C 769.356 527.552 766.11 530.798 766.11 534.796 C 766.11 535.367 766.17 535.923 766.305 536.449 C 760.278 536.149 754.943 533.263 751.366 528.875 C 750.75 529.942 750.389 531.189 750.389 532.512 C 750.389 535.022 751.666 537.246 753.62 538.539 C 752.433 538.509 751.321 538.178 750.344 537.637 C 750.344 537.667 750.344 537.697 750.344 537.727 C 750.344 541.244 752.839 544.16 756.16 544.836 C 755.559 545.001 754.913 545.091 754.251 545.091 C 753.785 545.091 753.335 545.046 752.884 544.956 C 753.8 547.842 756.476 549.931 759.647 549.991 C 757.167 551.93 754.041 553.087 750.644 553.087 C 750.058 553.087 749.487 553.057 748.916 552.982 C 752.087 555.056 755.905 556.258 759.993 556.258 Z " fill="rgb(255,255,255)"/></g></g><g><path d=" M 868.497 512.603 L 819.035 512.603 C 817.34 512.603 815.966 513.977 815.966 515.672 L 815.966 565.133 C 815.966 566.828 817.34 568.202 819.035 568.202 L 845.666 568.202 L 845.666 546.701 L 838.445 546.701 L 838.445 538.285 L 845.666 538.285 L 845.666 532.095 C 845.666 524.914 850.052 521.003 856.458 521.003 C 859.526 521.003 862.164 521.231 862.932 521.329 L 862.932 528.834 L 858.515 528.834 C 855.029 528.834 854.354 530.49 854.354 532.921 L 854.354 538.285 L 862.687 538.285 L 861.601 546.701 L 854.354 546.701 L 854.354 568.202 L 868.497 568.202 C 870.191 568.202 871.565 566.828 871.565 565.133 L 871.565 515.672 C 871.565 513.977 870.191 512.603 868.497 512.603 L 868.497 512.603 Z " fill-rule="evenodd" fill="rgb(45,51,58)"/></g></g><g transform="matrix(1,0,0,1,513.5,1460.291)"><text transform="matrix(1,0,0,1,0,21.377)" style="font-family:&quot;Open Sans&quot;;font-weight:400;font-size:20px;font-style:normal;fill:#000000;stroke:none;">seguici su </text><text transform="matrix(1,0,0,1,95.84,21.377)" style="font-family:&quot;Open Sans&quot;;font-weight:700;font-size:20px;font-style:normal;fill:#000000;stroke:none;">Slack MeetUp Twitter Facebook</text></g></g></svg>