<?xml version="1.0" encoding="utf-8"?>
<!-- Generator: Adobe Illustrator 16.0.3, SVG Export Plug-In . SVG Version: 6.00 Build 0)  -->
<!DOCTYPE svg PUBLIC "-//W3C//DTD SVG 1.1//EN" "http://www.w3.org/Graphics/SVG/1.1/DTD/svg11.dtd">
<svg version="1.1" id="Layer_1" xmlns="http://www.w3.org/2000/svg" xmlns:xlink="http://www.w3.org/1999/xlink" x="0px" y="0px"
	 width="1052px" height="1053px" viewBox="0 0 1052 1053" style="enable-background:new 0 0 1052 1053;" xml:space="preserve">
<style type="text/css">
<![CDATA[
	.st0{fill-rule:evenodd;clip-rule:evenodd;}
	.st1{fill:#FDE134;}
]]>
</style>
<rect id="sfondo" class="st1" width="1052" height="1053"/>
<g id="testo">
	<g id="lettere">
		<path id="s" class="st0" d="M682.42,885.068c22.555-13.054,44.771-25.909,66.562-38.521c6.41,8.048,11.895,16.185,18.604,23.137
			c25.248,26.155,55.975,32.046,90.018,22.108c14.041-4.099,24.732-13.071,27.984-28.215c2.752-12.816,0.449-24.988-9.348-34.251
			c-5.781-5.467-12.473-10.442-19.592-13.927c-18.092-8.849-36.623-16.799-55.031-24.99c-21.047-9.371-41.314-19.996-58.533-35.642
			c-22.596-20.535-33.783-46.335-35.648-76.577c-1.373-22.297,1.965-43.562,13.062-63.196
			c13.807-24.422,34.584-40.546,61.102-48.783c35.996-11.182,71.936-10.47,106.885,4.274c25.531,10.771,42.969,30.492,56.721,54.616
			c-21.453,13.781-42.684,27.416-64.125,41.188c-2.797-4.183-5.285-8.164-8.029-11.958c-7.547-10.438-16.965-18.407-29.82-21.432
			c-9.75-2.292-19.555-2.64-29.277,0.206c-30.707,8.991-31.035,45.062-15.27,59.307c6.906,6.242,15.061,11.52,23.434,15.643
			c16.066,7.914,32.752,14.57,49.076,21.973c21.969,9.963,43.25,21.092,61.508,37.232c23.549,20.814,34.859,47.254,36.365,78.299
			c0.996,20.587-1.451,40.547-10.611,59.289c-12.695,25.981-33.625,42.795-60.084,53.165c-24.486,9.593-50.031,12.423-76.164,11.224
			c-25.432-1.163-49.855-6.364-72.793-17.678c-28.184-13.906-49.77-34.726-64.887-62.266
			C683.867,888.092,683.297,886.836,682.42,885.068z"/>
		<path id="j" class="st0" d="M555.32,563.897c27.775,0,55.135,0,82.695,0c0,1.72,0.012,187.492-0.018,278.764
			c-0.006,18.861-1.809,37.49-8.119,55.43c-10.77,30.618-31.111,52.186-61.887,62.717c-36.928,12.637-74.113,12.418-110.58-1.963
			c-30.873-12.175-51.986-34.879-66.438-64.878c22.48-13.604,44.773-27.096,67.09-40.598c4.346,6.84,8.215,13.435,12.576,19.685
			c7.812,11.188,17.691,19.74,31.734,21.789c9.279,1.352,18.602,1.108,27.67-1.726c15.127-4.728,21.396-16.485,23.666-30.907
			c1.139-7.245,1.535-14.673,1.543-22.018c0.102-90.02,0.066-180.037,0.066-270.057C555.32,568.21,555.32,566.283,555.32,563.897z"
			/>
	</g>
	<g id="torri">
		<polygon points="165.037,560.856 82.727,568.83 121.568,969.802 204.652,969.802 		"/>
		<g>
			<polygon points="368.67,161.506 286.09,157.111 242.838,969.802 325.65,969.802 			"/>
		</g>
	</g>
</g>
<g>
</g>
<g>
</g>
<g>
</g>
<g>
</g>
<g>
</g>
<g>
</g>
</svg>
