<svg width="1024" height="1024" viewBox="0 0 1024 1024" fill="none" xmlns="http://www.w3.org/2000/svg">
<path d="M1024 0H0V1024H1024V0Z" fill="#F3DF49"/>
<path fill-rule="evenodd" clip-rule="evenodd" d="M659.533 813.719L722.313 777.384C728.362 784.975 733.534 792.65 739.863 799.209C763.674 823.879 792.655 829.433 824.767 820.058C838.01 816.194 848.091 807.73 851.16 793.449C853.757 781.36 851.585 769.877 842.345 761.142C836.889 755.984 830.578 751.294 823.865 748.006C806.8 739.658 789.32 732.16 771.961 724.434C752.107 715.595 732.992 705.575 716.749 690.818C695.438 671.45 684.885 647.117 683.129 618.593C681.835 597.563 684.984 577.503 695.448 558.986C708.472 535.951 728.068 520.746 753.079 512.972C787.031 502.429 820.931 503.097 853.893 517.004C877.974 527.164 894.422 545.766 907.39 568.52C887.158 581.516 867.132 594.377 846.909 607.368C844.27 603.42 841.925 599.665 839.337 596.086C832.218 586.244 823.337 578.727 811.21 575.873C802.012 573.71 792.767 573.383 783.597 576.069C754.634 584.548 754.326 618.57 769.195 632.005C775.707 637.896 783.401 642.871 791.296 646.762C806.45 654.227 822.188 660.501 837.585 667.484C858.307 676.883 878.376 687.38 895.599 702.604C917.812 722.233 928.477 747.17 929.897 776.455C930.836 795.869 928.528 814.695 919.891 832.372C907.918 856.878 888.176 872.737 863.217 882.519C840.126 891.568 816.031 894.235 791.38 893.105C767.392 892.007 744.357 887.102 722.724 876.432C696.139 863.315 675.781 843.676 661.524 817.703C660.898 816.568 660.36 815.386 659.533 813.719Z" fill="#2E2E2C"/>
<path fill-rule="evenodd" clip-rule="evenodd" d="M539.655 510.791H617.65C617.65 512.412 617.663 687.632 617.635 773.722C617.631 791.511 615.926 809.08 609.974 826C599.819 854.878 580.633 875.223 551.605 885.154C516.775 897.075 481.702 896.865 447.306 883.304C418.189 871.822 398.275 850.408 384.644 822.113C405.847 809.281 426.873 796.556 447.923 783.821C452.02 790.273 455.673 796.49 459.784 802.386C467.15 812.938 476.47 821.006 489.713 822.935C498.468 824.211 507.259 823.982 515.812 821.31C530.079 816.848 535.993 805.759 538.133 792.16C539.207 785.326 539.581 778.319 539.59 771.391C539.688 686.483 539.651 601.58 539.651 516.677C539.655 514.86 539.655 513.042 539.655 510.791Z" fill="#2E2E2C"/>
<path fill-rule="evenodd" clip-rule="evenodd" d="M171.543 507.923L93.9081 515.444L130.541 893.637H208.905L171.543 507.923ZM363.608 131.261L285.717 127.113L244.921 893.637H323.032L363.608 131.261Z" fill="#2E2E2C"/>
</svg>
