<?xml version="1.0" standalone="no"?><!-- Generator: Gravit.io --><svg xmlns="http://www.w3.org/2000/svg" xmlns:xlink="http://www.w3.org/1999/xlink" style="isolation:isolate" viewBox="357.69 966.146 196.31 161.854" width="196.31" height="161.854"><g opacity="0.2"><path d=" M 553.817 1114.444 C 551.346 1098.666 522.123 1110.834 520.32 1093.546 C 517.767 1069.015 554.251 1016.147 551.372 995.623 C 548.787 977.145 536.332 973.274 525.496 973.084 C 514.97 972.894 512.189 974.572 508.631 976.641 C 506.578 977.83 503.628 980.186 499.533 976.293 C 496.812 973.703 495.014 971.89 492.135 969.593 C 490.669 968.42 488.333 966.943 484.422 966.368 C 480.506 965.792 475.438 966.368 472.218 967.747 C 468.991 969.131 466.46 971.548 463.81 973.85 C 461.164 976.152 454.445 983.672 448.183 980.897 C 445.467 979.698 436.271 975.104 429.634 972.232 C 416.821 966.688 398.342 975.669 391.689 987.495 C 381.787 1005.087 362.238 1074.206 359.278 1083.322 C 352.641 1103.792 367.691 1120.477 387.989 1119.516 C 396.572 1119.109 402.28 1115.975 407.701 1106.121 C 410.835 1100.431 440.263 1023.585 442.452 1019.898 C 444.039 1017.227 449.334 1013.698 453.826 1016 C 458.313 1018.302 459.209 1023.102 458.546 1027.625 C 457.47 1034.938 436.716 1081.818 435.918 1087.123 C 434.566 1096.141 438.851 1101.159 448.216 1101.647 C 454.635 1101.989 461.028 1099.681 466.107 1090.109 C 468.948 1084.755 501.678 1019.225 504.574 1014.849 C 507.757 1010.049 510.315 1008.469 513.557 1008.637 C 516.072 1008.763 520.097 1009.408 519.092 1016.945 C 518.104 1024.334 491.788 1072.419 489.028 1084.196 C 485.335 1099.937 493.977 1115.878 508.213 1122.855 C 517.295 1127.302 557.021 1134.925 553.817 1114.444 Z " fill="rgb(255,255,255)"/></g></svg>