<?xml version="1.0" standalone="no"?><!-- Generator: Gravit.io --><svg xmlns="http://www.w3.org/2000/svg" xmlns:xlink="http://www.w3.org/1999/xlink" style="isolation:isolate" viewBox="759.884 1575.158 101.5 109.842" width="101.5" height="109.842"><g><linearGradient id="_lgradient_0" x1="0.09611878959830869" y1="0.8562714707753588" x2="0.8989889367210984" y2="0.37169833785878154" gradientTransform="matrix(82.441,0,0,56.073,778.861,1628.927)" gradientUnits="userSpaceOnUse"><stop offset="0%" stop-opacity="1" style="stop-color:rgb(252,238,57)"/><stop offset="100%" stop-opacity="1" style="stop-color:rgb(243,123,61)"/></linearGradient><path d=" M 860.033 1635.776 C 860.793 1635.101 861.215 1634.172 861.3 1633.074 C 861.384 1630.879 859.78 1629.106 857.585 1628.938 C 856.572 1628.853 855.558 1629.275 854.799 1629.866 L 854.799 1629.866 L 784.049 1668.618 C 782.445 1669.293 781.01 1670.475 780.081 1672.08 C 777.633 1676.132 778.983 1681.366 783.12 1683.815 C 785.991 1685.503 789.452 1685.335 792.154 1683.646 L 792.154 1683.646 L 792.154 1683.646 C 792.323 1683.477 792.576 1683.393 792.745 1683.224 L 858.598 1636.958 C 858.936 1636.705 859.864 1636.029 860.033 1635.776 L 860.033 1635.776 L 860.033 1635.776 Z " fill="url(#_lgradient_0)"/><linearGradient id="_lgradient_1" x1="0.08601399491094153" y1="0.09462935882097546" x2="0.9964109414758268" y2="0.8916560763782276" gradientTransform="matrix(66.359,0,0,61.635,795.025,1575.158)" gradientUnits="userSpaceOnUse"><stop offset="0%" stop-opacity="1" style="stop-color:rgb(239,90,107)"/><stop offset="56.99999999999999%" stop-opacity="1" style="stop-color:rgb(242,111,78)"/><stop offset="100%" stop-opacity="1" style="stop-color:rgb(243,123,61)"/></linearGradient><path d=" M 860.202 1630.119 L 860.202 1630.119 L 806.338 1577.268 C 805.156 1576.002 803.467 1575.158 801.525 1575.158 C 797.895 1575.158 795.025 1578.113 795.025 1581.659 L 795.025 1581.659 C 795.025 1583.432 795.7 1584.951 796.798 1586.133 L 796.798 1586.133 L 796.798 1586.133 C 797.135 1586.471 797.473 1586.724 797.811 1586.977 L 854.714 1635.692 L 854.714 1635.692 C 855.39 1636.283 856.234 1636.705 857.247 1636.789 C 859.442 1636.874 861.215 1635.27 861.384 1633.074 C 861.384 1631.977 860.962 1630.879 860.202 1630.119 Z " fill="url(#_lgradient_1)"/><linearGradient id="_lgradient_2" x1="0.9011848029610512" y1="0.9132922835916245" x2="0.17938283342752537" y2="0.4625234747097257" gradientTransform="matrix(49.604,0,0,34.447,759.902,1597.427)" gradientUnits="userSpaceOnUse"><stop offset="0%" stop-opacity="1" style="stop-color:rgb(124,89,164)"/><stop offset="38.519999999999996%" stop-opacity="1" style="stop-color:rgb(175,76,146)"/><stop offset="76.53999999999999%" stop-opacity="1" style="stop-color:rgb(220,65,131)"/><stop offset="95.7%" stop-opacity="1" style="stop-color:rgb(237,61,125)"/></linearGradient><path d=" M 808.111 1625.392 C 808.026 1625.392 774.847 1599.219 774.171 1598.797 L 774.171 1598.797 L 774.171 1598.797 C 773.665 1598.544 773.158 1598.291 772.651 1598.037 C 767.755 1596.18 762.351 1598.713 760.494 1603.61 C 758.89 1607.915 760.663 1612.643 764.378 1614.923 L 764.378 1614.923 L 764.378 1614.923 C 764.969 1615.26 765.475 1615.514 766.066 1615.683 C 766.404 1615.851 804.396 1631.555 804.396 1631.555 L 804.396 1631.555 C 805.916 1632.23 807.689 1631.808 808.702 1630.542 C 809.968 1628.938 809.715 1626.658 808.111 1625.392 Z " fill="url(#_lgradient_2)"/><linearGradient id="_lgradient_3" x1="0.9137574912707139" y1="0.07597012876288428" x2="0.18894858640740053" y2="0.6745978964024748" gradientTransform="matrix(48.227,0,0,41.14,759.884,1575.158)" gradientUnits="userSpaceOnUse"><stop offset="0%" stop-opacity="1" style="stop-color:rgb(239,90,107)"/><stop offset="36.4%" stop-opacity="1" style="stop-color:rgb(238,78,114)"/><stop offset="100%" stop-opacity="1" style="stop-color:rgb(237,61,125)"/></linearGradient><path d=" M 801.525 1575.158 C 800.09 1575.158 798.739 1575.664 797.642 1576.424 L 764.04 1599.05 C 763.956 1599.135 763.871 1599.135 763.871 1599.219 L 763.787 1599.219 L 763.787 1599.219 C 762.351 1600.232 761.169 1601.752 760.494 1603.525 C 758.637 1608.422 761.169 1613.91 766.066 1615.683 C 769.106 1616.864 772.398 1616.274 774.847 1614.501 L 774.847 1614.501 L 774.847 1614.501 C 775.438 1614.078 775.944 1613.656 776.366 1613.15 L 805.578 1586.809 L 805.578 1586.809 C 807.098 1585.627 808.111 1583.769 808.111 1581.659 L 808.111 1581.659 C 808.111 1578.113 805.156 1575.158 801.525 1575.158 Z " fill="url(#_lgradient_3)"/><g><rect x="789.115" y="1606.733" width="43.058" height="43.058" transform="matrix(1,0,0,1,0,0)" fill="rgb(0,0,0)"/><rect x="792.829" y="1641.686" width="16.125" height="2.702" transform="matrix(1,0,0,1,0,0)" fill="rgb(255,255,255)"/><g><path d=" M 792.661 1618.046 L 793.927 1616.864 C 794.265 1617.287 794.602 1617.54 795.025 1617.54 C 795.531 1617.54 795.784 1617.202 795.784 1616.527 L 795.784 1612.052 L 797.726 1612.052 L 797.726 1616.527 C 797.726 1617.371 797.473 1618.046 797.051 1618.469 C 796.629 1618.891 795.953 1619.144 795.109 1619.144 C 793.843 1619.228 793.167 1618.722 792.661 1618.046 Z " fill="rgb(255,255,255)"/><path d=" M 798.148 1612.137 L 803.805 1612.137 L 803.805 1613.741 L 800.09 1613.741 L 800.09 1614.838 L 803.467 1614.838 L 803.467 1616.358 L 800.09 1616.358 L 800.09 1617.455 L 803.889 1617.455 L 803.889 1619.144 L 798.233 1619.144 L 798.148 1612.137 Z " fill="rgb(255,255,255)"/><path d=" M 806.338 1613.825 L 804.227 1613.825 L 804.227 1612.137 L 810.39 1612.137 L 810.39 1613.825 L 808.28 1613.825 L 808.28 1619.144 L 806.338 1619.144 L 806.338 1613.825 Z " fill="rgb(255,255,255)"/><path d=" M 792.829 1620.748 L 796.46 1620.748 C 797.304 1620.748 797.979 1621.001 798.402 1621.339 C 798.655 1621.592 798.824 1622.015 798.824 1622.521 L 798.824 1622.521 C 798.824 1623.365 798.402 1623.787 797.726 1624.125 C 798.57 1624.378 799.077 1624.885 799.077 1625.814 L 799.077 1625.814 C 799.077 1626.996 798.064 1627.756 796.46 1627.756 L 792.829 1627.756 L 792.829 1620.748 Z  M 796.882 1622.943 C 796.882 1622.521 796.544 1622.352 796.038 1622.352 L 794.771 1622.352 L 794.771 1623.619 L 795.953 1623.619 C 796.544 1623.534 796.882 1623.365 796.882 1622.943 L 796.882 1622.943 Z  M 796.207 1624.969 L 794.687 1624.969 L 794.687 1626.236 L 796.207 1626.236 C 796.798 1626.236 797.135 1625.983 797.135 1625.56 L 797.135 1625.56 C 797.135 1625.138 796.798 1624.969 796.207 1624.969 Z " fill="rgb(255,255,255)"/><path d=" M 799.415 1620.748 L 802.707 1620.748 C 803.805 1620.748 804.48 1621.001 804.987 1621.508 C 805.409 1621.93 805.578 1622.437 805.578 1623.112 L 805.578 1623.112 C 805.578 1624.21 804.987 1624.885 804.143 1625.307 L 805.831 1627.756 L 803.636 1627.756 L 802.201 1625.645 L 801.357 1625.645 L 801.357 1627.756 L 799.415 1627.756 L 799.415 1620.748 Z  M 802.623 1624.125 C 803.298 1624.125 803.636 1623.787 803.636 1623.281 L 803.636 1623.281 C 803.636 1622.69 803.214 1622.437 802.623 1622.437 L 801.357 1622.437 L 801.357 1624.125 L 802.623 1624.125 Z " fill="rgb(255,255,255)"/><path d=" M 807.857 1620.748 L 809.715 1620.748 L 812.67 1627.84 L 810.559 1627.84 L 810.053 1626.574 L 807.351 1626.574 L 806.844 1627.84 L 804.818 1627.84 L 807.857 1620.748 Z  M 809.546 1624.969 L 808.786 1623.028 L 808.026 1624.969 L 809.546 1624.969 Z " fill="rgb(255,255,255)"/><path d=" M 812.923 1620.748 L 814.865 1620.748 L 814.865 1627.756 L 812.923 1627.756 L 812.923 1620.748 Z " fill="rgb(255,255,255)"/><path d=" M 815.371 1620.748 L 817.144 1620.748 L 820.015 1624.463 L 820.015 1620.748 L 821.957 1620.748 L 821.957 1627.756 L 820.268 1627.756 L 817.313 1623.956 L 817.313 1627.84 L 815.371 1627.84 L 815.371 1620.748 Z " fill="rgb(255,255,255)"/><path d=" M 822.126 1626.742 L 823.223 1625.476 C 823.898 1626.067 824.658 1626.32 825.503 1626.32 C 826.009 1626.32 826.347 1626.151 826.347 1625.814 L 826.347 1625.814 C 826.347 1625.476 826.094 1625.392 825.165 1625.138 C 823.645 1624.801 822.548 1624.378 822.548 1622.943 L 822.548 1622.943 C 822.548 1621.677 823.561 1620.664 825.249 1620.664 C 826.431 1620.664 827.36 1621.001 828.12 1621.592 L 827.107 1622.943 C 826.431 1622.521 825.756 1622.268 825.165 1622.268 C 824.658 1622.268 824.489 1622.437 824.489 1622.69 L 824.489 1622.69 C 824.489 1623.028 824.743 1623.112 825.671 1623.365 C 827.276 1623.703 828.289 1624.21 828.289 1625.56 L 828.289 1625.56 C 828.289 1626.996 827.191 1627.84 825.418 1627.84 C 824.152 1627.924 822.97 1627.502 822.126 1626.742 Z " fill="rgb(255,255,255)"/></g></g></g></svg>