<?xml version="1.0" encoding="UTF-8"?>
<svg xmlns="http://www.w3.org/2000/svg" xmlns:xlink="http://www.w3.org/1999/xlink" width="120px" height="120px" viewBox="0 0 120 120" version="1.1">
<g id="surface1">
<rect x="0" y="0" width="120" height="120" style="fill:rgb(95.294118%,87.45098%,28.627451%);fill-opacity:1;stroke:none;"/>
<path style=" stroke:none;fill-rule:evenodd;fill:rgb(18.039216%,18.039216%,17.254902%);fill-opacity:1;" d="M 77.84375 100.863281 L 85.433594 96.472656 C 86.167969 97.390625 86.792969 98.316406 87.558594 99.109375 C 90.4375 102.089844 93.941406 102.761719 97.824219 101.628906 C 99.425781 101.160156 100.648438 100.140625 101.019531 98.414062 C 101.332031 96.953125 101.070312 95.566406 99.953125 94.511719 C 99.292969 93.886719 98.527344 93.320312 97.714844 92.921875 C 95.652344 91.914062 93.539062 91.007812 91.4375 90.074219 C 89.039062 89.007812 86.726562 87.796875 84.761719 86.011719 C 82.183594 83.671875 80.910156 80.734375 80.695312 77.285156 C 80.539062 74.746094 80.921875 72.324219 82.1875 70.085938 C 83.761719 67.300781 86.132812 65.464844 89.15625 64.527344 C 93.261719 63.25 97.363281 63.332031 101.347656 65.011719 C 104.261719 66.238281 106.25 68.488281 107.816406 71.238281 C 105.371094 72.808594 102.949219 74.359375 100.503906 75.929688 C 100.183594 75.453125 99.902344 75 99.585938 74.566406 C 98.726562 73.378906 97.652344 72.46875 96.1875 72.125 C 95.074219 71.863281 93.957031 71.824219 92.847656 72.148438 C 89.34375 73.171875 89.304688 77.285156 91.105469 78.90625 C 91.890625 79.617188 92.824219 80.21875 93.777344 80.691406 C 95.609375 81.59375 97.515625 82.351562 99.375 83.195312 C 101.882812 84.328125 104.308594 85.597656 106.390625 87.4375 C 109.078125 89.808594 110.367188 92.820312 110.539062 96.359375 C 110.652344 98.707031 110.375 100.980469 109.328125 103.117188 C 107.882812 106.078125 105.496094 107.992188 102.476562 109.175781 C 99.683594 110.269531 96.769531 110.589844 93.789062 110.453125 C 90.886719 110.320312 88.101562 109.730469 85.484375 108.441406 C 82.269531 106.855469 79.808594 104.480469 78.082031 101.34375 C 78.007812 101.207031 77.941406 101.0625 77.84375 100.863281 Z M 77.84375 100.863281 "/>
<path style=" stroke:none;fill-rule:evenodd;fill:rgb(18.039216%,18.039216%,17.254902%);fill-opacity:1;" d="M 63.34375 64.261719 L 72.777344 64.261719 C 72.777344 64.457031 72.777344 85.628906 72.773438 96.03125 C 72.773438 98.179688 72.570312 100.300781 71.847656 102.347656 C 70.621094 105.835938 68.300781 108.292969 64.789062 109.492188 C 60.578125 110.933594 56.335938 110.910156 52.175781 109.269531 C 48.65625 107.882812 46.246094 105.296875 44.597656 101.875 C 47.160156 100.328125 49.703125 98.789062 52.25 97.25 C 52.746094 98.03125 53.1875 98.78125 53.683594 99.492188 C 54.574219 100.769531 55.703125 101.742188 57.304688 101.976562 C 58.363281 102.128906 59.425781 102.101562 60.460938 101.78125 C 62.1875 101.242188 62.902344 99.902344 63.160156 98.257812 C 63.289062 97.433594 63.335938 96.585938 63.335938 95.75 C 63.347656 85.488281 63.34375 75.230469 63.34375 64.972656 C 63.34375 64.753906 63.34375 64.535156 63.34375 64.261719 Z M 63.34375 64.261719 "/>
<path style=" stroke:none;fill-rule:evenodd;fill:rgb(18.039216%,18.039216%,17.254902%);fill-opacity:1;" d="M 18.824219 63.914062 L 9.4375 64.824219 L 13.867188 110.519531 L 23.34375 110.519531 Z M 42.054688 18.40625 L 32.632812 17.90625 L 27.699219 110.519531 L 37.144531 110.519531 Z M 42.054688 18.40625 "/>
</g>
</svg>
