<svg id="Layer_1"
    xmlns="http://www.w3.org/2000/svg" width="1052" height="1053">
    <style>.st0{fill-rule:evenodd;clip-rule:evenodd;fill:#2e2e2c}</style>
    <path id="sfondo" fill="#f3df49" d="M0 0h1052v1053H0z"/>
    <g id="testo">
        <g id="lettere">
            <path id="s" class="st0" d="M682.42 885.068l66.562-38.521c6.41 8.048 11.895 16.185 18.604 23.137 25.248 26.155 55.975 32.046 90.018 22.108 14.041-4.099 24.732-13.071 27.984-28.215 2.752-12.816.449-24.988-9.348-34.251-5.781-5.467-12.473-10.442-19.592-13.927-18.092-8.849-36.623-16.799-55.031-24.99-21.047-9.371-41.314-19.996-58.533-35.642-22.596-20.535-33.783-46.335-35.648-76.577-1.373-22.297 1.965-43.562 13.062-63.196 13.807-24.422 34.584-40.546 61.102-48.783 35.996-11.182 71.936-10.47 106.885 4.274 25.531 10.771 42.969 30.492 56.721 54.616-21.453 13.781-42.684 27.416-64.125 41.188-2.797-4.183-5.285-8.164-8.029-11.958-7.547-10.438-16.965-18.407-29.82-21.432-9.75-2.292-19.555-2.64-29.277.206-30.707 8.991-31.035 45.062-15.27 59.307 6.906 6.242 15.061 11.52 23.434 15.643 16.066 7.914 32.752 14.57 49.076 21.973 21.969 9.963 43.25 21.092 61.508 37.232 23.549 20.814 34.859 47.254 36.365 78.299.996 20.587-1.451 40.547-10.611 59.289-12.695 25.981-33.625 42.795-60.084 53.165-24.486 9.593-50.031 12.423-76.164 11.224-25.432-1.163-49.855-6.364-72.793-17.678-28.184-13.906-49.77-34.726-64.887-62.266-.662-1.201-1.232-2.457-2.109-4.225z"/>
            <path id="j" class="st0" d="M555.32 563.897h82.695c0 1.72.012 187.492-.018 278.764-.006 18.861-1.809 37.49-8.119 55.43-10.77 30.618-31.111 52.186-61.887 62.717-36.928 12.637-74.113 12.418-110.58-1.963-30.873-12.175-51.986-34.879-66.438-64.878 22.48-13.604 44.773-27.096 67.09-40.598 4.346 6.84 8.215 13.435 12.576 19.685 7.812 11.188 17.691 19.74 31.734 21.789 9.279 1.352 18.602 1.108 27.67-1.726 15.127-4.728 21.396-16.485 23.666-30.907 1.139-7.245 1.535-14.673 1.543-22.018.102-90.02.066-180.037.066-270.057.002-1.925.002-3.852.002-6.238z"/>
        </g>
        <g id="torri" class="st0">
            <path d="M165.037 560.856l-82.31 7.974 38.841 400.972h83.084zM368.67 161.506l-82.58-4.395-43.252 812.691h82.812z"/>
        </g>
    </g>
</svg>