<svg width="60" height="60" viewBox="0 0 60 60" fill="none" xmlns="http://www.w3.org/2000/svg">
	<path fill-rule="evenodd" clip-rule="evenodd" d="M29.997 0.661987C13.433 0.661987 0 14.093 0 30.664C0 43.917 8.59499 55.161 20.516 59.129C22.017 59.404 22.564 58.478 22.564 57.683C22.564 56.971 22.538 55.084 22.524 52.581C14.179 54.394 12.418 48.559 12.418 48.559C11.054 45.093 9.08698 44.171 9.08698 44.171C6.36298 42.309 9.29303 42.347 9.29303 42.347C12.304 42.559 13.888 45.439 13.888 45.439C16.564 50.023 20.91 48.699 22.619 47.931C22.892 45.993 23.667 44.671 24.524 43.921C17.862 43.164 10.859 40.59 10.859 29.094C10.859 25.819 12.028 23.141 13.947 21.044C13.638 20.285 12.608 17.235 14.242 13.104C14.242 13.104 16.759 12.298 22.491 16.18C24.883 15.514 27.45 15.181 30.001 15.17C32.55 15.181 35.115 15.514 37.511 16.18C43.239 12.298 45.753 13.104 45.753 13.104C47.39 17.235 46.361 20.285 46.053 21.044C47.976 23.141 49.136 25.819 49.136 29.094C49.136 40.619 42.121 43.155 35.439 43.897C36.515 44.824 37.474 46.655 37.474 49.453C37.474 53.464 37.438 56.699 37.438 57.683C37.438 58.485 37.979 59.419 39.5 59.126C51.412 55.151 60 43.914 60 30.664C60 14.093 46.567 0.661987 29.997 0.661987Z" fill="#444" />
</svg>
