<svg width="61" height="61" viewBox="0 0 61 61" fill="none" xmlns="http://www.w3.org/2000/svg">
	<path d="M33.3831 25.07L25.3147 27.7765L27.929 35.57L35.9974 32.8635L33.3831 25.07Z" fill="#444" />
	<path d="M33.3831 25.07L25.3147 27.7765L27.929 35.57L35.9974 32.8635L33.3831 25.07Z" fill="#444" />
	<path d="M58.286 22.3101C52.047 1.51609 43.053 -3.31994 22.259 2.91806C1.46498 9.15606 -3.37098 18.151 2.86702 38.945C9.10502 59.739 18.1 64.5751 38.894 58.3371C59.688 52.0991 64.524 43.1041 58.286 22.3101ZM47.792 35.802L43.875 37.1081L45.229 41.1701C45.761 42.8141 44.89 44.603 43.246 45.135C42.908 45.232 42.521 45.3291 42.182 45.2801C40.925 45.2321 39.716 44.4101 39.281 43.1521L37.927 39.0901L29.851 41.7981L31.205 45.8601C31.737 47.5051 30.866 49.2941 29.222 49.8261C28.884 49.9231 28.497 50.019 28.158 49.971C26.901 49.923 25.692 49.101 25.257 47.843L23.903 43.781L19.986 45.0871C19.647 45.1831 19.26 45.2801 18.922 45.2321C17.665 45.1831 16.456 44.361 16.02 43.104C15.488 41.46 16.359 39.6711 18.003 39.1391L21.92 37.833L19.309 30.0471L15.392 31.3531C15.053 31.4501 14.666 31.5461 14.328 31.4981C13.071 31.4501 11.862 30.6281 11.426 29.3701C10.894 27.7261 11.765 25.9371 13.409 25.4051L17.326 24.099L15.972 20.0371C15.44 18.3931 16.311 16.6041 17.955 16.0721C19.599 15.5401 21.388 16.41 21.92 18.054L23.274 22.117L31.35 19.4081L29.996 15.346C29.464 13.702 30.334 11.9131 31.979 11.3811C33.623 10.8491 35.412 11.719 35.944 13.364L37.298 17.4261L41.215 16.1201C42.859 15.5881 44.649 16.4591 45.181 18.1031C45.712 19.7471 44.842 21.5361 43.198 22.0681L39.281 23.3741L41.892 31.1601L45.809 29.854C47.453 29.322 49.243 30.1921 49.775 31.8371C50.306 33.4811 49.436 35.27 47.792 35.802Z" fill="#444" />
</svg>
