<svg width="300" height="300" viewBox="0 0 300 300" fill="none" xmlns="http://www.w3.org/2000/svg">
<path fill-rule="evenodd" clip-rule="evenodd" d="M150 0C232.843 0 300 67.1573 300 150C300 232.843 232.843 300 150 300C67.1573 300 0 232.843 0 150C0 67.1573 67.1573 0 150 0ZM70.8516 83.3457C86.7187 79.2227 149.938 79.2227 149.938 79.2227C149.938 79.2227 213.282 79.2229 229.148 83.5957C237.769 85.8446 244.64 92.7152 246.889 101.336C251.262 117.203 251.137 150.188 251.137 150.188C251.137 150.188 251.137 183.047 246.889 198.789C244.64 207.535 237.769 214.281 229.148 216.654C213.282 220.777 149.938 220.777 149.938 220.777C149.938 220.777 86.8436 220.777 70.8516 216.529C62.2308 214.155 55.3601 207.285 52.9863 198.664C48.8634 183.047 48.8633 150.063 48.8633 150.063C48.8633 150.063 48.8634 117.203 52.9863 101.336C55.3601 92.7152 62.3558 85.7195 70.8516 83.3457ZM182.422 150.063L129.822 119.703V180.297L182.422 150.063Z" fill="#444444"/>
</svg>
