<svg width="57" height="56" viewBox="0 0 57 56" fill="none" xmlns="http://www.w3.org/2000/svg">
	<path fill-rule="evenodd" clip-rule="evenodd" d="M53.393 0.383087H3.93201C2.23701 0.383087 0.862976 1.75706 0.862976 3.45206V52.9131C0.862976 54.6081 2.23701 55.9821 3.93201 55.9821H30.563V34.481H23.342V26.065H30.563V19.875C30.563 12.694 34.949 8.78305 41.355 8.78305C44.423 8.78305 47.06 9.01104 47.829 9.10904V16.614H43.412C39.926 16.614 39.251 18.2701 39.251 20.7011V26.065H47.584L46.498 34.481H39.251V55.9821H53.393C55.088 55.9821 56.462 54.6081 56.462 52.9131V3.45206C56.462 1.75706 55.088 0.383087 53.393 0.383087Z" fill="#444" />
</svg>
