<svg width="82" height="78" viewBox="0 0 82 78" fill="none" xmlns="http://www.w3.org/2000/svg">
	<path fill-rule="evenodd" clip-rule="evenodd" d="M77.8578 42.6139C77.6088 41.4609 76.4728 40.7289 75.3198 40.9769C74.1678 41.2259 73.4348 42.3619 73.6838 43.5139C73.9318 44.6669 75.0678 45.3989 76.2208 45.1509C77.3738 44.9019 78.1068 43.7659 77.8578 42.6139ZM25.4928 1.42492C25.2828 0.449917 24.3218 -0.169085 23.3478 0.0409146C22.3718 0.250915 21.7518 1.21091 21.9628 2.18691C22.1738 3.16091 23.1338 3.77991 24.1088 3.56991C25.0838 3.35991 25.7038 2.39892 25.4928 1.42492ZM72.3018 25.8259C73.6058 24.9249 73.9328 23.1389 73.0308 21.8349C72.1298 20.5309 70.3428 20.2039 69.0378 21.1049C67.7338 22.0059 67.4068 23.7929 68.3078 25.0969C69.2098 26.4009 70.9968 26.7269 72.3018 25.8259ZM65.0418 27.8899C65.2968 24.5479 64.4628 21.1039 62.4078 18.1319C58.4028 12.3379 51.0908 10.2129 44.7638 12.5059C39.1118 8.88591 31.6358 8.73392 25.7678 12.7879C22.7978 14.8399 20.6818 17.6609 19.4888 20.7969C17.7618 21.0309 16.0588 21.6079 14.5258 22.6679C9.4588 26.1679 8.12183 32.9919 11.3368 38.1659C6.97383 42.1609 5.96782 48.8119 9.28282 53.9499C11.2498 56.9969 14.3378 58.8319 17.6548 59.3769C17.7168 61.8639 18.4628 64.3609 19.9828 66.5589C24.1398 72.5739 32.3878 74.0799 38.4038 69.9249C38.6338 69.7649 38.8108 69.5639 39.0278 69.3929C42.3808 72.3849 47.4138 72.8779 51.2748 70.2109C53.3348 68.7889 54.6518 66.7189 55.2268 64.4699C58.2478 64.5809 61.3238 63.8129 64.0018 61.9629C70.4258 57.5249 72.1498 48.8479 68.0398 42.3009C71.3388 39.5189 72.0488 34.6549 69.5148 31.0639C68.3848 29.4609 66.7858 28.4099 65.0418 27.8899ZM48.5078 3.8099C47.5488 2.2149 45.4788 1.6969 43.8848 2.6549C42.2888 3.6119 41.7728 5.6819 42.7298 7.2759C43.6888 8.8709 45.7588 9.3879 47.3528 8.4309C48.9478 7.4729 49.4648 5.4039 48.5078 3.8099ZM81.4768 32.3239C81.2908 31.4669 80.4468 30.9219 79.5898 31.1069C78.7318 31.2919 78.1878 32.1359 78.3718 32.9939C78.5578 33.8509 79.4028 34.3949 80.2598 34.2109C81.1168 34.0249 81.6618 33.1799 81.4768 32.3239ZM17.8058 17.2379C18.9778 16.4289 19.2718 14.8229 18.4618 13.6519C17.6518 12.4799 16.0458 12.1869 14.8738 12.9969C13.7028 13.8059 13.4088 15.4119 14.2188 16.5829C15.0278 17.7539 16.6348 18.0479 17.8058 17.2379ZM6.19779 39.1339C7.25879 37.5879 6.86479 35.4749 5.31779 34.4139C3.77079 33.3539 1.6568 33.7469 0.595805 35.2939C-0.465195 36.8399 -0.0711906 38.9539 1.47581 40.0139C3.02281 41.0739 5.13679 40.6809 6.19779 39.1339ZM12.2738 63.5559C12.4568 64.4079 13.2978 64.9499 14.1498 64.7659C15.0018 64.5819 15.5448 63.7419 15.3598 62.8899C15.1758 62.0369 14.3358 61.4959 13.4828 61.6789C12.6318 61.8639 12.0888 62.7029 12.2738 63.5559ZM37.4978 73.7509C36.5008 74.4399 36.2508 75.8069 36.9398 76.8029C37.6288 77.7999 38.9958 78.0499 39.9928 77.3619C40.9898 76.6719 41.2398 75.3049 40.5508 74.3089C39.8628 73.3119 38.4958 73.0629 37.4978 73.7509ZM58.2628 67.5399C56.6468 68.6559 56.2418 70.8709 57.3578 72.4859C58.4748 74.1019 60.6908 74.5069 62.3078 73.3899C63.9238 72.2739 64.3278 70.0589 63.2108 68.4439C62.0938 66.8269 59.8788 66.4229 58.2628 67.5399ZM57.3448 53.5179C56.8548 50.3859 51.0538 52.8009 50.6968 49.3699C50.1898 44.5009 57.4308 34.0079 56.8598 29.9339C56.3468 26.2669 53.8748 25.4979 51.7238 25.4609C49.6348 25.4229 49.0828 25.7559 48.3768 26.1669C47.9688 26.4029 47.3838 26.8699 46.5708 26.0979C46.0308 25.5839 45.6738 25.2239 45.1028 24.7679C44.8108 24.5349 44.3478 24.2419 43.5718 24.1279C42.7938 24.0129 41.7878 24.1279 41.1488 24.4009C40.5088 24.6759 40.0058 25.1559 39.4798 25.6129C38.9548 26.0699 37.6218 27.5619 36.3788 27.0109C35.8398 26.7729 34.0148 25.8619 32.6968 25.2919C30.1538 24.1909 26.4858 25.9739 25.1658 28.3209C23.2008 31.8129 19.3208 45.5309 18.7328 47.3409C17.4158 51.4039 20.4028 54.7149 24.4318 54.5239C26.1348 54.4439 27.2678 53.8219 28.3438 51.8659C28.9658 50.7359 34.8068 35.4839 35.2408 34.7519C35.5558 34.2219 36.6068 33.5219 37.4988 33.9789C38.3888 34.4359 38.5668 35.3879 38.4358 36.2859C38.2218 37.7379 34.1028 47.0419 33.9448 48.0949C33.6758 49.8849 34.5268 50.8809 36.3848 50.9779C37.6598 51.0459 38.9278 50.5879 39.9358 48.6879C40.4998 47.6249 46.9968 34.6189 47.5708 33.7499C48.2028 32.7969 48.7108 32.4839 49.3538 32.5169C49.8528 32.5419 50.6518 32.6699 50.4528 34.1659C50.2568 35.6329 45.0338 45.1769 44.4858 47.5139C43.7528 50.6379 45.4678 53.8019 48.2938 55.1869C50.0958 56.0699 57.9808 57.5829 57.3448 53.5179Z" fill="#444" />
</svg>
