<svg width="61" height="61" viewBox="0 0 61 61" fill="none" xmlns="http://www.w3.org/2000/svg">
	<path fill-rule="evenodd" clip-rule="evenodd" d="M60.449 30.1823C60.449 46.7833 46.9912 60.2411 30.3902 60.2411C13.7892 60.2411 0.331421 46.7833 0.331421 30.1823C0.331421 13.5813 13.7892 0.123474 30.3902 0.123474C46.9912 0.123474 60.449 13.5813 60.449 30.1823ZM45.51 25.4181C45.51 34.9921 38.221 46.0381 24.889 46.0381C20.801 46.0381 16.984 44.8361 13.813 42.7621C14.384 42.8371 14.955 42.867 15.541 42.867C18.938 42.867 22.064 41.7101 24.544 39.7711C21.373 39.7111 18.697 37.6221 17.781 34.7361C18.231 34.8261 18.682 34.8711 19.148 34.8711C19.81 34.8711 20.456 34.7811 21.057 34.6161C17.735 33.9401 15.241 31.024 15.241 27.507V27.4171C16.217 27.9581 17.33 28.2891 18.517 28.3191C16.563 27.0261 15.286 24.8021 15.286 22.2921C15.286 20.9691 15.646 19.7221 16.263 18.6551C19.84 23.0431 25.175 25.929 31.202 26.229C31.067 25.703 31.006 25.1471 31.006 24.5761C31.006 20.5781 34.253 17.3321 38.251 17.3321C40.34 17.3321 42.218 18.204 43.541 19.617C45.194 19.286 46.742 18.6851 48.14 17.8581C47.599 19.5561 46.457 20.9691 44.954 21.8711C46.427 21.6911 47.824 21.3 49.117 20.729C48.14 22.187 46.908 23.4641 45.495 24.4861C45.51 24.7871 45.51 25.1021 45.51 25.4181Z" fill="#444" />
</svg>
